<svg xmlns="http://www.w3.org/2000/svg" width="160" height="48" viewBox="0 0 160 48">
  <rect width="40" height="40" x="4" y="4" rx="8" fill="#0f172a" />
  <g stroke="#ffffff" stroke-width="2" fill="none" stroke-linecap="round" stroke-linejoin="round" opacity="0.7" transform="translate(16, 16) scale(0.8)">
    <path d="M21 8a2 2 0 0 0-1-1.73l-7-4a2 2 0 0 0-2 0l-7 4A2 2 0 0 0 3 8v8a2 2 0 0 0 1 1.73l7 4a2 2 0 0 0 2 0l7-4A2 2 0 0 0 21 16Z"/><path d="m3.3 7 8.7 5 8.7-5"/><path d="M12 22V12"/>
  </g>
  <g stroke="#ffffff" stroke-width="2" fill="none" stroke-linecap="round" stroke-linejoin="round" transform="translate(10, 10) scale(0.8)">
    <circle cx="11" cy="11" r="8"/><path d="m21 21-4.3-4.3"/>
  </g>
  <text x="56" y="34" font-family="system-ui, -apple-system, sans-serif" font-size="24" font-weight="bold" fill="#0f172a" letter-spacing="-0.5">LFMS</text>
</svg>